<?xml version="1.0" encoding="UTF-8"?>
<svg xmlns="http://www.w3.org/2000/svg" viewBox="0 0 256 256">
<path d="M0 0 C0.92683594 0.12503906 1.85367188 0.25007813 2.80859375 0.37890625 C6.62919242 1.84753354 8.71096242 3.86751359 10.5625 7.4375 C11.63397113 11.32907399 12.09524592 15.24637638 12.5625 19.25 C12.88401586 21.68638318 13.20699827 24.12257317 13.53125 26.55859375 C13.69625 27.84233887 13.86125 29.12608398 14.03125 30.44873047 C14.83038603 36.55847839 15.79601253 42.64312984 16.74111938 48.73162842 C17.59802934 54.27993936 18.42509263 59.83283665 19.25531006 65.38519287 C19.45953149 66.74957709 19.66432161 68.11387632 19.86968994 69.47808838 C20.55388944 74.02484149 21.21867457 78.57412033 21.875 83.125 C22.04644531 84.26308105 22.21789062 85.40116211 22.39453125 86.57373047 C25.57811976 109.07440552 25.57811976 109.07440552 20.88671875 116.76171875 C16.05636749 122.87446416 10.03356996 126.79090902 2.16815567 127.72047234 C-0.53099294 127.83242076 -3.21602755 127.85439832 -5.91748047 127.84155273 C-6.93646423 127.84841599 -7.955448 127.85527924 -9.00531006 127.86235046 C-12.35524652 127.8805688 -15.70471238 127.87678761 -19.0546875 127.87109375 C-21.39584504 127.87565819 -23.73700125 127.88096454 -26.07815552 127.88697815 C-30.97875419 127.89589974 -35.87918981 127.89349716 -40.77978516 127.88354492 C-47.04294696 127.87206165 -53.30554443 127.89226242 -59.56863213 127.92146206 C-64.40210514 127.9398572 -69.23544377 127.93952486 -74.06894302 127.93382454 C-76.37728796 127.9336717 -78.68564223 127.93968454 -80.9939537 127.95211601 C-84.22923352 127.96708494 -87.46348171 127.95630453 -90.69873047 127.93920898 C-92.11271622 127.95371094 -92.11271622 127.95371094 -93.55526733 127.96850586 C-101.02161319 127.88638278 -107.84810448 126.21563377 -113.83984375 121.578125 C-119.41480397 114.71227069 -121.79131036 109.37586701 -121.4375 100.4375 C-121.04872521 97.77122183 -120.6170303 95.14617031 -120.125 92.5 C-118.83279396 85.18903668 -117.82316563 77.87077782 -116.9375 70.5 C-115.99470979 62.72486808 -114.98443898 54.97779641 -113.69873047 47.25146484 C-112.93926533 42.67835172 -112.24304533 38.10217951 -111.61074829 33.50949097 C-111.20886693 30.60700534 -110.79083824 27.70693195 -110.37176514 24.80688477 C-110.16741313 23.36516868 -109.97005501 21.92244201 -109.78009033 20.47875977 C-107.86519676 5.98298599 -107.86519676 5.98298599 -102.4375 1.4375 C-99.18280985 0.35260328 -96.73206791 0.30426008 -93.3125 0.3125 C-92.23742187 0.30992188 -91.16234375 0.30734375 -90.0546875 0.3046875 C-87.4375 0.4375 -87.4375 0.4375 -86.4375 1.4375 C-86.22793117 3.22465644 -86.06938384 5.01793769 -85.9375 6.8125 C-85.70513656 9.95770509 -85.43874031 12.43377907 -84.4375 15.4375 C-81.75537807 17.50067072 -80.30520942 17.43053734 -76.875 17.25 C-72.91977304 16.3327795 -72.91977304 16.3327795 -70.4375 13.4375 C-69.89498532 10.50748005 -69.89498532 10.50748005 -69.8125 7.3125 C-69.52083333 1.52083333 -69.52083333 1.52083333 -68.4375 0.4375 C-65.48044679 0.34881701 -62.54684944 0.32229704 -59.58984375 0.33984375 C-58.26020348 0.34196617 -58.26020348 0.34196617 -56.90370178 0.34413147 C-54.06076746 0.34974785 -51.21791069 0.36230309 -48.375 0.375 C-46.45247509 0.38001289 -44.52994896 0.38457616 -42.60742188 0.38867188 C-37.88408451 0.39972259 -33.16080542 0.41699817 -28.4375 0.4375 C-28.33953125 1.32953125 -28.2415625 2.2215625 -28.140625 3.140625 C-27.99109375 4.31109375 -27.8415625 5.4815625 -27.6875 6.6875 C-27.47867188 8.42773438 -27.47867188 8.42773438 -27.265625 10.203125 C-26.33534341 13.83648893 -25.41002527 15.20268173 -22.4375 17.4375 C-18.9375 18.10416667 -18.9375 18.10416667 -15.4375 17.4375 C-12.23622134 14.91017474 -10.61666272 12.91061569 -10.12109375 8.8359375 C-9.99927734 7.33933594 -9.99927734 7.33933594 -9.875 5.8125 C-9.74931641 4.30816406 -9.74931641 4.30816406 -9.62109375 2.7734375 C-9.56050781 2.00257812 -9.49992187 1.23171875 -9.4375 0.4375 C-6.08057694 -0.64461402 -3.4726836 -0.53462951 0 0 Z " fill="#2676F8" transform="translate(176.4375,79.5625)"/>
<path d="M0 0 C7.95394527 6.98782546 11.11151016 16.31436776 12.16015625 26.5625 C12.50144155 32.14776519 11.89241957 36.70126259 10.34765625 42.0625 C7.03515625 42.75 7.03515625 42.75 3.34765625 43.0625 C1.64257812 41.82885742 1.64257812 41.82885742 0.34765625 40.0625 C0.04450191 37.11549001 -0.11895341 34.32527481 -0.15234375 31.375 C-0.2401057 23.80866576 -1.28062417 17.9849593 -5.27734375 11.375 C-10.59296265 6.19926581 -15.60560221 3.74640148 -23.08984375 3.4375 C-30.20386618 3.74535828 -36.17630364 5.61105452 -41.30859375 10.70703125 C-46.71263592 17.66630649 -46.97917049 25.64641829 -47.13085938 34.09765625 C-47.33081269 39.58905717 -47.33081269 39.58905717 -49 42.046875 C-51.69011104 43.70037115 -53.58768998 43.57327563 -56.65234375 43.0625 C-60.31328112 38.75054144 -59.98852617 34.76751744 -59.58984375 29.4375 C-59.5345752 28.63642822 -59.47930664 27.83535645 -59.42236328 27.01000977 C-58.44391548 15.38009004 -54.50568421 6.08553191 -45.62109375 -1.72265625 C-31.02643764 -12.48357117 -14.07426837 -10.28105613 0 0 Z " fill="#2568D4" transform="translate(151.65234375,50.9375)"/>
<path d="M0 0 C4.65499719 0.13691168 7.02683855 2.49404917 10.25390625 5.52734375 C15.2187709 9.71471282 20.06396649 9.47221683 26.37109375 9.38671875 C31.59410793 8.83012197 35.79297101 7.1408075 40 4 C40.53109375 3.29101562 41.0621875 2.58203125 41.609375 1.8515625 C43 0 43 0 45.5625 -0.375 C48 0 48 0 50 2 C50.1537551 5.30573466 49.61916129 7.27240691 47.4609375 9.80859375 C39.77786425 16.92538471 32.56178355 19.67979784 22.09814453 19.61132812 C13.47941151 19.19830921 6.16773774 15.67774807 0.1875 9.4375 C-1.69230642 6.95857399 -2.00735667 6.33840678 -1.9375 3.125 C-1 1 -1 1 0 0 Z " fill="#F0F7FC" transform="translate(104,153)"/>
<path d="M0 0 C0.8559375 -0.00322266 1.711875 -0.00644531 2.59375 -0.00976562 C9.15996391 0.04495282 15.90412409 0.47226825 21.75 3.6875 C23.49120476 5.57380516 24.00368025 6.76719587 24.25 9.3125 C23.92 9.9725 23.59 10.6325 23.25 11.3125 C24.57 11.6425 25.89 11.9725 27.25 12.3125 C26.92 14.6225 26.59 16.9325 26.25 19.3125 C25.59 19.3125 24.93 19.3125 24.25 19.3125 C23.59 18.6525 22.93 17.9925 22.25 17.3125 C21.59 16.9825 20.93 16.6525 20.25 16.3125 C20.25 15.6525 20.25 14.9925 20.25 14.3125 C19.59 14.3125 18.93 14.3125 18.25 14.3125 C17.755 11.8375 17.755 11.8375 17.25 9.3125 C16.651875 9.498125 16.05375 9.68375 15.4375 9.875 C13.25 10.3125 13.25 10.3125 10.25 9.3125 C8.77034074 9.16676942 7.28596157 9.06586732 5.80078125 8.99609375 C4.95322266 8.95419922 4.10566406 8.91230469 3.23242188 8.86914062 C2.35134766 8.82982422 1.47027344 8.79050781 0.5625 8.75 C-0.33017578 8.70681641 -1.22285156 8.66363281 -2.14257812 8.61914062 C-4.34490108 8.51314647 -6.54733473 8.41107949 -8.75 8.3125 C-8.75 8.9725 -8.75 9.6325 -8.75 10.3125 C-12.05 10.6425 -15.35 10.9725 -18.75 11.3125 C-18.42 12.9625 -18.09 14.6125 -17.75 16.3125 C-18.74 16.3125 -19.73 16.3125 -20.75 16.3125 C-20.42 14.0025 -20.09 11.6925 -19.75 9.3125 C-20.41 8.9825 -21.07 8.6525 -21.75 8.3125 C-19.77 7.9825 -17.79 7.6525 -15.75 7.3125 C-15.688125 6.714375 -15.62625 6.11625 -15.5625 5.5 C-14.75 3.3125 -14.75 3.3125 -12.80859375 1.6953125 C-8.49683012 -0.25406722 -4.67509096 -0.08644769 0 0 Z " fill="#2776F5" transform="translate(126.75,44.6875)"/>
<path d="M0 0 C0.99 0 1.98 0 3 0 C4.83691257 3.78187881 5.15837626 5.94568308 4 10 C3.34 10 2.68 10 2 10 C2.33386719 10.97453125 2.66773437 11.9490625 3.01171875 12.953125 C4.24886038 17.29788765 4.12077442 21.27806984 3.8125 25.75 C3.78091797 26.50410156 3.74933594 27.25820312 3.71679688 28.03515625 C3.38567937 33.43860997 3.38567937 33.43860997 1.63671875 35.984375 C-1.04203417 37.64660832 -2.94295717 37.50950714 -6 37 C-9.15557391 33.30637893 -9.30221925 30.24066287 -9.06103516 25.61499023 C-8.99964355 24.83454346 -8.93825195 24.05409668 -8.875 23.25 C-8.82005371 22.44957275 -8.76510742 21.64914551 -8.70849609 20.82446289 C-8.2523813 15.15189602 -7.45364695 10.190407 -5 5 C-4.01 4.67 -3.02 4.34 -2 4 C-0.79117904 1.99983534 -0.79117904 1.99983534 0 0 Z " fill="#266FE9" transform="translate(101,57)"/>
<path d="M0 0 C0.928125 0.20625 1.85625 0.4125 2.8125 0.625 C2.4825 1.285 2.1525 1.945 1.8125 2.625 C35.4725 2.625 69.1325 2.625 103.8125 2.625 C103.8125 1.965 103.8125 1.305 103.8125 0.625 C104.8025 0.295 105.7925 -0.035 106.8125 -0.375 C106.8125 0.285 106.8125 0.945 106.8125 1.625 C108.4625 1.625 110.1125 1.625 111.8125 1.625 C111.8125 0.965 111.8125 0.305 111.8125 -0.375 C113.4625 -0.375 115.1125 -0.375 116.8125 -0.375 C113.15827209 3.61201258 108.71498352 5.2979499 103.40996933 5.89571571 C100.69169924 6.00634263 97.98947806 6.01913451 95.26904297 5.99731445 C94.24363403 6.00096512 93.2182251 6.00461578 92.16174316 6.00837708 C88.792553 6.0164436 85.42384963 6.00290643 82.0546875 5.98828125 C79.70394898 5.98776226 77.35321002 5.98828147 75.00247192 5.98979187 C70.08507781 5.98970233 65.16784825 5.97930758 60.25048828 5.96118164 C53.95120295 5.93847032 47.65215736 5.9379569 41.35284233 5.94469929 C36.50238926 5.94804196 31.65199073 5.94140392 26.801548 5.93157005 C24.4787436 5.92772482 22.15593312 5.92656703 19.83312607 5.9281559 C16.58768918 5.92852716 13.34255876 5.91588963 10.09716797 5.8996582 C8.66161057 5.90337433 8.66161057 5.90337433 7.197052 5.90716553 C2.33462663 5.86839684 -1.62402166 5.52773432 -6.1875 3.625 C-6.1875 2.965 -6.1875 2.305 -6.1875 1.625 C-3.1875 -0.375 -3.1875 -0.375 0 0 Z " fill="#1E4991" transform="translate(75.1875,201.375)"/>
<path d="M0 0 C0 0.33 0 0.66 0 1 C-0.73114014 0.98952637 -1.46228027 0.97905273 -2.21557617 0.96826172 C-5.53951559 0.92659711 -8.86339995 0.90064044 -12.1875 0.875 C-13.91323242 0.84986328 -13.91323242 0.84986328 -15.67382812 0.82421875 C-16.78564453 0.81777344 -17.89746094 0.81132813 -19.04296875 0.8046875 C-20.06414795 0.79421387 -21.08532715 0.78374023 -22.13745117 0.77294922 C-25.1592321 1.01262992 -27.30967831 1.61581598 -30 3 C-30.3721042 4.32303717 -30.70630173 5.65737935 -31 7 C-31.66 7.268125 -32.32 7.53625 -33 7.8125 C-33.66 8.204375 -34.32 8.59625 -35 9 C-35.81870185 12.56206661 -35.81870185 12.56206661 -36 16 C-35.01 16 -34.02 16 -33 16 C-33.33 14.35 -33.66 12.7 -34 11 C-30.59437148 10.22157062 -27.49234244 9.90021879 -24 10 C-24 9.34 -24 8.68 -24 8 C-20.22918278 7.97100401 -16.45839417 7.95320271 -12.6875 7.9375 C-11.61564453 7.92912109 -10.54378906 7.92074219 -9.43945312 7.91210938 C-8.41142578 7.90888672 -7.38339844 7.90566406 -6.32421875 7.90234375 C-5.37635498 7.89710693 -4.42849121 7.89187012 -3.4519043 7.88647461 C-1 8 -1 8 2 9 C2.495 11.475 2.495 11.475 3 14 C3.66 14 4.32 14 5 14 C5 14.66 5 15.32 5 16 C5.66 16.33 6.32 16.66 7 17 C6.505 18.485 6.505 18.485 6 20 C5.525625 19.278125 5.05125 18.55625 4.5625 17.8125 C0.35725196 13.19698386 -3.88457648 10.48678492 -10.125 9.51171875 C-17.72665772 9.19797108 -23.82889595 10.41772498 -30 15 C-33.72027488 18.77292028 -35.62730723 22.88359968 -37 28 C-39 24.25 -39 24.25 -39 22 C-38.34 22 -37.68 22 -37 22 C-37.33 18.7 -37.66 15.4 -38 12 C-38.99 12 -39.98 12 -41 12 C-41.33 13.98 -41.66 15.96 -42 18 C-42.99 17.67 -43.98 17.34 -45 17 C-42.36694217 8.86145761 -36.4111972 3.81788947 -29 0 C-19.40637497 -3.65723827 -9.49885396 -4.18914975 0 0 Z " fill="#2664CA" transform="translate(142,45)"/>
<path d="M0 0 C2.5 1.625 2.5 1.625 4 4 C4.60024477 7.60146865 4.45562482 9.27859404 2.5 12.375 C-1.24099229 14.80664499 -3.57426418 14.49174842 -8 14 C-10 13 -10 13 -11 11 C-11.51981506 7.43555389 -11.63102777 4.26205554 -10 1 C-6.7370473 -0.63147635 -3.51440821 -0.6293407 0 0 Z " fill="#EFF9FD" transform="translate(105,125)"/>
<path d="M0 0 C2 1 2 1 3 3 C3.51981506 6.56444611 3.63102777 9.73794446 2 13 C-1.2629527 14.63147635 -4.48559179 14.6293407 -8 14 C-10.5 12.375 -10.5 12.375 -12 10 C-12.60024477 6.39853135 -12.45562482 4.72140596 -10.5 1.625 C-6.75900771 -0.80664499 -4.42573582 -0.49174842 0 0 Z " fill="#F5FAFC" transform="translate(159,125)"/>
<path d="M0 0 C0.33 0 0.66 0 1 0 C1.18626404 4.74973306 0.87866695 9.06459714 0.0625 13.75 C-1.06285968 20.47067947 -1.38376425 27.13219271 -1.57006836 33.93261719 C-1.74622385 38.97276005 -2.4000867 43.21238066 -4 48 C-5.15570704 51.46712111 -5.32835293 54.5414956 -5.5625 58.1875 C-5.68818359 60.09595703 -5.68818359 60.09595703 -5.81640625 62.04296875 C-5.90728516 63.50669922 -5.90728516 63.50669922 -6 65 C-6.66 65 -7.32 65 -8 65 C-8.33 67.64 -8.66 70.28 -9 73 C-9.33 73 -9.66 73 -10 73 C-10.12951786 67.48007217 -9.70428697 62.37074133 -8.6875 56.9375 C-7.44605375 49.93571376 -6.43957922 42.93133696 -5.5625 35.875 C-4.05642509 23.85705349 -2.07440317 11.93138385 0 0 Z " fill="#1D4996" transform="translate(69,87)"/>
<path d="M0 0 C13.2 0 26.4 0 40 0 C40.495 6.435 40.495 6.435 41 13 C40.34 12.67 39.68 12.34 39 12 C39 9.03 39 6.06 39 3 C37.95545654 3.03029297 36.91091309 3.06058594 35.8347168 3.09179688 C31.96021756 3.20404801 28.08570217 3.31573273 24.21118164 3.42724609 C22.53409384 3.47559399 20.85701046 3.5240956 19.17993164 3.57275391 C16.76970548 3.64265688 14.35946396 3.7120075 11.94921875 3.78125 C11.19912033 3.80312378 10.44902191 3.82499756 9.67619324 3.84753418 C1.18068311 4.09034156 1.18068311 4.09034156 -1 3 C-0.67 2.01 -0.34 1.02 0 0 Z " fill="#245BB9" transform="translate(108,80)"/>
<path d="M0 0 C2.6875 2.125 2.6875 2.125 4 4 C3.67 4.66 3.34 5.32 3 6 C2.46375 5.67 1.9275 5.34 1.375 5 C-1.67193922 3.71707822 -3.72032701 3.59004088 -7 4 C-9.39286802 5.86111957 -10.71123488 7.38637411 -12 10.125 C-13 12 -13 12 -17 14 C-16.34 9.05 -15.68 4.1 -15 -1 C-9.64531647 -2.33867088 -5.26540637 -1.52608895 0 0 Z " fill="#2674F6" transform="translate(182,81)"/>
<path d="M0 0 C0.33 0 0.66 0 1 0 C8.82596504 44.62414289 8.82596504 44.62414289 8 62 C7.67 62 7.34 62 7 62 C7 58.7 7 55.4 7 52 C6.34 52 5.68 52 5 52 C4.92483154 50.9644397 4.92483154 50.9644397 4.84814453 49.90795898 C4.61465298 46.75052841 4.36992156 43.59406368 4.125 40.4375 C4.04636719 39.35146484 3.96773437 38.26542969 3.88671875 37.14648438 C3.53840569 32.73898449 3.19118543 28.66625226 1.96875 24.40625 C0.61441813 19.64424438 0.53669921 14.99095724 0.375 10.0625 C0.33632812 9.09248047 0.29765625 8.12246094 0.2578125 7.12304688 C0.16424924 4.74887924 0.07850792 2.37470508 0 0 Z " fill="#2354A6" transform="translate(192,128)"/>
<path d="M0 0 C1.05703125 0.01546875 2.1140625 0.0309375 3.203125 0.046875 C5.75 0.25 5.75 0.25 6.75 1.25 C6.98527773 3.59987262 7.16386417 5.95556039 7.3125 8.3125 C7.43818359 10.24802734 7.43818359 10.24802734 7.56640625 12.22265625 C7.62699219 13.22167969 7.68757813 14.22070312 7.75 15.25 C6.43 14.59 5.11 13.93 3.75 13.25 C3.75 9.95 3.75 6.65 3.75 3.25 C-2.685 3.745 -2.685 3.745 -9.25 4.25 C-9.58 5.24 -9.91 6.23 -10.25 7.25 C-11.24 7.25 -12.23 7.25 -13.25 7.25 C-10.89881042 1.05140929 -6.21294745 -0.15302826 0 0 Z " fill="#2F6ACD" transform="translate(83.25,79.75)"/>
<path d="M0 0 C0.33 0 0.66 0 1 0 C1 2.64 1 5.28 1 8 C0.34 8 -0.32 8 -1 8 C-0.67 15.59 -0.34 23.18 0 31 C2.31 30.34 4.62 29.68 7 29 C7 29.66 7 30.32 7 31 C4.13879744 32.43060128 2.15989415 32.38692581 -1 32 C-4.16489892 28.31853137 -4.30264094 25.234535 -4.06030273 20.61474609 C-3.99915283 19.83437988 -3.93800293 19.05401367 -3.875 18.25 C-3.822229 17.45029785 -3.76945801 16.6505957 -3.71508789 15.82666016 C-3.27098922 10.15675026 -2.24020754 5.2596177 0 0 Z " fill="#204B91" transform="translate(96,62)"/>
<path d="M0 0 C3.77081722 -0.02899599 7.54160583 -0.04679729 11.3125 -0.0625 C12.38435547 -0.07087891 13.45621094 -0.07925781 14.56054688 -0.08789062 C16.10258789 -0.09272461 16.10258789 -0.09272461 17.67578125 -0.09765625 C18.62364502 -0.10289307 19.57150879 -0.10812988 20.5480957 -0.11352539 C23 0 23 0 26 1 C26.33 2.65 26.66 4.3 27 6 C27.66 6 28.32 6 29 6 C29 6.66 29 7.32 29 8 C29.66 8.33 30.32 8.66 31 9 C30.67 9.99 30.34 10.98 30 12 C29.525625 11.278125 29.05125 10.55625 28.5625 9.8125 C24.32108735 5.15729099 20.06521855 2.3228455 13.69921875 1.65234375 C8.65512048 1.61235656 3.92715272 1.88682846 -1 3 C-0.67 2.01 -0.34 1.02 0 0 Z " fill="#1F52A9" transform="translate(118,53)"/>
<path d="M0 0 C0 0.33 0 0.66 0 1 C-1.11242065 0.98428955 -1.11242065 0.98428955 -2.24731445 0.96826172 C-5.60234193 0.92672804 -8.95731533 0.90068211 -12.3125 0.875 C-14.06336914 0.84986328 -14.06336914 0.84986328 -15.84960938 0.82421875 C-16.96787109 0.81777344 -18.08613281 0.81132813 -19.23828125 0.8046875 C-20.26993408 0.79421387 -21.30158691 0.78374023 -22.36450195 0.77294922 C-25.23187592 0.80702485 -25.23187592 0.80702485 -28 3 C-30.1875 2.625 -30.1875 2.625 -32 2 C-21.48046905 -3.02599812 -11.08812432 -4.98456965 0 0 Z " fill="#2553A7" transform="translate(142,45)"/>
<path d="M0 0 C3 1 3 1 4 3 C4.66 2.67 5.32 2.34 6 2 C6 5.3 6 8.6 6 12 C4.34385343 12.38218767 2.67542976 12.71395102 1 13 C0 12 0 12 -0.09765625 9.27734375 C-0.08605469 8.17519531 -0.07445312 7.07304688 -0.0625 5.9375 C-0.05347656 4.83277344 -0.04445312 3.72804688 -0.03515625 2.58984375 C-0.02355469 1.73519531 -0.01195312 0.88054687 0 0 Z " fill="#2675F9" transform="translate(155,79)"/>
<path d="M0 0 C0.33 0.66 0.66 1.32 1 2 C2.65 2 4.3 2 6 2 C6 1.34 6 0.68 6 0 C7.65 0 9.3 0 11 0 C7.81006573 3.5089277 5.41328069 4.90538792 0.60839844 5.22705078 C-0.7112793 5.21657715 -2.03095703 5.20610352 -3.390625 5.1953125 C-4.09523865 5.1924826 -4.79985229 5.18965271 -5.52581787 5.18673706 C-7.7673876 5.17557801 -10.00855186 5.15048193 -12.25 5.125 C-13.77343171 5.11496464 -15.29686971 5.10583976 -16.8203125 5.09765625 C-20.54700586 5.07565291 -24.27346333 5.04115272 -28 5 C-28 4.67 -28 4.34 -28 4 C-19.42 3.67 -10.84 3.34 -2 3 C-2 2.34 -2 1.68 -2 1 C-1.34 0.67 -0.68 0.34 0 0 Z " fill="#316DD0" transform="translate(181,201)"/>
<path d="M0 0 C0 0.66 0 1.32 0 2 C-1.36125 2.86625 -1.36125 2.86625 -2.75 3.75 C-8.07184943 7.43435729 -10.24967431 11.87386008 -12 18 C-14 14.25 -14 14.25 -14 12 C-13.34 12 -12.68 12 -12 12 C-12 9.36 -12 6.72 -12 4 C-11.67 4.66 -11.34 5.32 -11 6 C-10.01 6 -9.02 6 -8 6 C-8.33 4.35 -8.66 2.7 -9 1 C-5.8035914 -0.06546953 -3.34252724 -0.07427838 0 0 Z " fill="#2863CC" transform="translate(117,55)"/>
<path d="M0 0 C0.33 0 0.66 0 1 0 C1.11069824 0.75506836 1.22139648 1.51013672 1.33544922 2.28808594 C1.84743665 5.77556741 2.36120951 9.26278372 2.875 12.75 C3.04902344 13.93722656 3.22304687 15.12445313 3.40234375 16.34765625 C4.51859972 23.91339114 5.71239232 31.4615163 7 39 C6.01 39.495 6.01 39.495 5 40 C1.45346372 26.63863074 0.22552732 13.80771558 0 0 Z " fill="#1C448C" transform="translate(186,87)"/>
<path d="M0 0 C1.49080078 0.02707031 1.49080078 0.02707031 3.01171875 0.0546875 C3.77097656 0.07789062 4.53023437 0.10109375 5.3125 0.125 C5.60125 0.929375 5.89 1.73375 6.1875 2.5625 C7.04512568 5.2576468 7.04512568 5.2576468 9.3125 6.125 C8.9825 8.105 8.6525 10.085 8.3125 12.125 C7.9825 12.125 7.6525 12.125 7.3125 12.125 C7.02375 11.01125 6.735 9.8975 6.4375 8.75 C5.62008671 5.12208908 5.62008671 5.12208908 3.3125 3.125 C1.40243694 2.8073754 1.40243694 2.8073754 -0.6875 2.875 C-1.38875 2.86984375 -2.09 2.8646875 -2.8125 2.859375 C-4.9310669 2.96794485 -4.9310669 2.96794485 -6.6875 5.125 C-7.08514263 7.11321313 -7.42525349 9.11444339 -7.6875 11.125 C-8.0175 11.125 -8.3475 11.125 -8.6875 11.125 C-8.76846803 9.66757537 -8.82667774 8.20887193 -8.875 6.75 C-8.90980469 5.93789062 -8.94460937 5.12578125 -8.98046875 4.2890625 C-8.88378906 3.57492188 -8.78710938 2.86078125 -8.6875 2.125 C-5.26655758 -0.15562828 -4.00562778 -0.09425007 0 0 Z " fill="#3F7EE5" transform="translate(101.6875,122.875)"/>
<path d="M0 0 C0.66 0 1.32 0 2 0 C2.33 1.32 2.66 2.64 3 4 C4.32 4.33 5.64 4.66 7 5 C6.67 7.31 6.34 9.62 6 12 C5.34 12 4.68 12 4 12 C3.34 11.34 2.68 10.68 2 10 C1.46375 9.5875 0.9275 9.175 0.375 8.75 C-1.63460372 6.19232253 -1.27419203 4.15320833 -1 1 C-0.67 0.67 -0.34 0.34 0 0 Z " fill="#2675FA" transform="translate(147,52)"/>
<path d="M0 0 C0.33 0 0.66 0 1 0 C1.20166126 9.55650317 1.26439611 18.63914824 -1 28 C-4.86947269 22.19579096 -2.66666162 15.08424356 -1.5 8.5625 C-1.35691406 7.73556641 -1.21382812 6.90863281 -1.06640625 6.05664062 C-0.71615337 4.03684899 -0.35880704 2.01828958 0 0 Z " fill="#1C458D" transform="translate(58,162)"/>
<path d="M0 0 C2.31 0 4.62 0 7 0 C3.8767818 3.62293311 0.66432691 5.93320069 -4 7 C-8.68557364 7.34029306 -13.32143065 7.46725012 -18 7 C-18.66 6.34 -19.32 5.68 -20 5 C-14.06 5 -8.12 5 -2 5 C-1.67 4.01 -1.34 3.02 -1 2 C-0.34 2.33 0.32 2.66 1 3 C0.67 2.01 0.34 1.02 0 0 Z " fill="#3877E2" transform="translate(138,156)"/>
<path d="M0 0 C0.33 0 0.66 0 1 0 C1.67476789 3.8736343 2.33837032 7.74910183 3 11.625 C3.19078125 12.71941406 3.3815625 13.81382812 3.578125 14.94140625 C3.75859375 16.00488281 3.9390625 17.06835938 4.125 18.1640625 C4.29257813 19.13811035 4.46015625 20.1121582 4.6328125 21.11572266 C5.01375517 24.10804756 5.06252962 26.98685417 5 30 C-0.0374534 24.9625466 0.59398563 16.73699965 0.375 10.0625 C0.33632812 9.09248047 0.29765625 8.12246094 0.2578125 7.12304688 C0.16424924 4.74887924 0.07850792 2.37470508 0 0 Z " fill="#193D7F" transform="translate(192,128)"/>
<path d="M0 0 C0.99 0 1.98 0 3 0 C3 0.66 3 1.32 3 2 C3.61875 2.061875 4.2375 2.12375 4.875 2.1875 C7 3 7 3 8.25 5.5625 C8.4975 6.366875 8.745 7.17125 9 8 C7.02 8.99 7.02 8.99 5 10 C0 4.5 0 4.5 0 0 Z " fill="#FBFBFC" transform="translate(103,154)"/>
<path d="M0 0 C0.33 0 0.66 0 1 0 C1 5.94 1 11.88 1 18 C0.34 18 -0.32 18 -1 18 C-1.33 20.64 -1.66 23.28 -2 26 C-2.33 26 -2.66 26 -3 26 C-3.16589226 19.97258105 -2.57114133 14.42505207 -1.5 8.5 C-1.35691406 7.67757812 -1.21382812 6.85515625 -1.06640625 6.0078125 C-0.71693088 4.00415373 -0.35931844 2.00191702 0 0 Z " fill="#194188" transform="translate(62,134)"/>
<path d="M0 0 C0.33 0 0.66 0 1 0 C1.33 3.96 1.66 7.92 2 12 C2.33 12 2.66 12 3 12 C3.33 13.65 3.66 15.3 4 17 C5.98 17 7.96 17 10 17 C10 17.66 10 18.32 10 19 C6.6875 19.6875 6.6875 19.6875 3 20 C0.92950292 18.51289123 0.11231426 17.62694705 -0.34057617 15.09887695 C-0.32486572 14.40238037 -0.30915527 13.70588379 -0.29296875 12.98828125 C-0.28330078 12.23095703 -0.27363281 11.47363281 -0.26367188 10.69335938 C-0.23853516 9.90767578 -0.21339844 9.12199219 -0.1875 8.3125 C-0.17396484 7.51521484 -0.16042969 6.71792969 -0.14648438 5.89648438 C-0.11117089 3.93070033 -0.05736447 1.96526418 0 0 Z " fill="#1E54A8" transform="translate(152,74)"/>
<path d="M0 0 C2.4375 0.375 2.4375 0.375 4.4375 2.375 C4.1875 5.4375 4.1875 5.4375 3.4375 8.375 C2.4475 8.87 2.4475 8.87 1.4375 9.375 C1.7675 7.065 2.0975 4.755 2.4375 2.375 C1.014375 3.365 1.014375 3.365 -0.4375 4.375 C-3.5625 6.375 -3.5625 6.375 -5.5625 6.375 C-5.5625 7.035 -5.5625 7.695 -5.5625 8.375 C-7.2125 8.375 -8.8625 8.375 -10.5625 8.375 C-9.799375 7.7975 -9.03625 7.22 -8.25 6.625 C-5.54096608 4.5717417 -5.54096608 4.5717417 -4.0625 2.125 C-2.5625 0.375 -2.5625 0.375 0 0 Z " fill="#DFF4FE" transform="translate(149.5625,152.625)"/>
<path d="M0 0 C0.66 0 1.32 0 2 0 C3.40469632 5.26761119 3 10.56891039 3 16 C1.02 16.99 1.02 16.99 -1 18 C-0.34 17.01 0.32 16.02 1 15 C1.37167184 12.23979004 1.17850636 9.81147524 1 7 C-1.76223278 4.23776722 -4.20706617 4.42143709 -8 4 C-8 3.67 -8 3.34 -8 3 C-6.865625 2.690625 -5.73125 2.38125 -4.5625 2.0625 C-1.21224901 1.37075469 -1.21224901 1.37075469 0 0 Z " fill="#417FE8" transform="translate(160,121)"/>
<path d="M0 0 C1.97909398 -0.02686553 3.95828971 -0.04633375 5.9375 -0.0625 C7.03964844 -0.07410156 8.14179687 -0.08570312 9.27734375 -0.09765625 C12 0 12 0 13 1 C13.23527773 3.34987262 13.41386417 5.70556039 13.5625 8.0625 C13.64628906 9.35285156 13.73007813 10.64320312 13.81640625 11.97265625 C13.87699219 12.97167969 13.93757813 13.97070312 14 15 C13.01 14.67 12.02 14.34 11 14 C11 9.71 11 5.42 11 1 C7.37 1 3.74 1 0 1 C0 0.67 0 0.34 0 0 Z " fill="#133775" transform="translate(77,80)"/>
<path d="M0 0 C2.6875 2.125 2.6875 2.125 4 4 C3.67 4.66 3.34 5.32 3 6 C1.68 5.34 0.36 4.68 -1 4 C-1 3.34 -1 2.68 -1 2 C-3.31 2 -5.62 2 -8 2 C-8 1.67 -8 1.34 -8 1 C-10.31 0.67 -12.62 0.34 -15 0 C-10.07635411 -3.08889105 -5.30107695 -1.60882457 0 0 Z " fill="#1B4C99" transform="translate(182,81)"/>
<path d="M0 0 C0.66 0.99 1.32 1.98 2 3 C0.68 3 -0.64 3 -2 3 C-2 2.34 -2 1.68 -2 1 C-4.43717258 1.27034634 -4.43717258 1.27034634 -7 2 C-9.12508244 5.18762365 -9.5020163 7.26512223 -10 11 C-10.66 10.67 -11.32 10.34 -12 10 C-12.31424507 6.54330418 -12.37956836 4.60098323 -10.5 1.625 C-6.77203273 -0.79817873 -4.40188052 -0.49698651 0 0 Z " fill="#D9F2FE" transform="translate(159,125)"/>
<path d="M0 0 C4.21912747 0.4794463 6.79663178 1.16625119 10 4 C9.01 4 8.02 4 7 4 C7 4.66 7 5.32 7 6 C2.25 5.125 2.25 5.125 0 4 C0 2.68 0 1.36 0 0 Z " fill="#2369DB" transform="translate(86,94)"/>
<path d="M0 0 C1.859375 1.5078125 1.859375 1.5078125 2.46875 4.765625 C2.51515625 6.04179688 2.5615625 7.31796875 2.609375 8.6328125 C2.66609375 9.91414063 2.7228125 11.19546875 2.78125 12.515625 C2.81992188 13.99675781 2.81992188 13.99675781 2.859375 15.5078125 C0.8803994 11.87164594 0.3342685 8.62355621 -0.140625 4.5078125 C-2.120625 3.8478125 -4.100625 3.1878125 -6.140625 2.5078125 C-4.68875174 -0.39593402 -3.0822 -0.70868102 0 0 Z " fill="#2D78EC" transform="translate(184.140625,85.4921875)"/>
<path d="M0 0 C4.67461851 -0.32613618 7.16674383 0.29417212 11 3 C8.07175348 3.97608217 6.04386724 4.08226668 3 4 C3 4.66 3 5.32 3 6 C2.01 5.67 1.02 5.34 0 5 C0.33 4.34 0.66 3.68 1 3 C0.67 2.01 0.34 1.02 0 0 Z " fill="#286BD9" transform="translate(138,46)"/>
<path d="M0 0 C-0.33 2.31 -0.66 4.62 -1 7 C-1.99 7 -2.98 7 -4 7 C-4 7.66 -4 8.32 -4 9 C-4.66 9 -5.32 9 -6 9 C-6.25 6.1875 -6.25 6.1875 -6 3 C-3.95959224 0.95959224 -2.91674756 0 0 0 Z " fill="#FDFAFB" transform="translate(152,155)"/>
<path d="M0 0 C0.33 0.99 0.66 1.98 1 3 C1.99 3.33 2.98 3.66 4 4 C3.071875 4.12375 3.071875 4.12375 2.125 4.25 C-0.18437567 4.81258459 -0.18437567 4.81258459 -1.25 7.0625 C-1.4975 7.701875 -1.745 8.34125 -2 9 C-2 8.34 -2 7.68 -2 7 C-4.31 6.34 -6.62 5.68 -9 5 C-9 4.67 -9 4.34 -9 4 C-7.88625 3.71125 -6.7725 3.4225 -5.625 3.125 C-1.99708908 2.30758671 -1.99708908 2.30758671 0 0 Z " fill="#3E7EE9" transform="translate(108,135)"/>
<path d="M0 0 C0.86625 1.11375 0.86625 1.11375 1.75 2.25 C3.90775176 4.98030656 3.90775176 4.98030656 6.1875 7.1875 C8 9 8 9 9 11 C9.99 11.33 10.98 11.66 12 12 C11.67 12.66 11.34 13.32 11 14 C9.72390677 13.09066991 8.45434447 12.17217147 7.1875 11.25 C6.47980469 10.73953125 5.77210937 10.2290625 5.04296875 9.703125 C2.91791247 7.93156757 1.4322145 6.36744606 0 4 C0 2.68 0 1.36 0 0 Z " fill="#DBF3FE" transform="translate(102,155)"/>
<path d="M0 0 C2 2 2 2 2.1953125 4.3828125 C2.17210937 5.28773437 2.14890625 6.19265625 2.125 7.125 C2.10695312 8.03507812 2.08890625 8.94515625 2.0703125 9.8828125 C2.04710937 10.58148438 2.02390625 11.28015625 2 12 C0.02 12.99 0.02 12.99 -2 14 C-1.34 9.38 -0.68 4.76 0 0 Z " fill="#2C65BF" transform="translate(167,81)"/>
<path d="M0 0 C0.33 0.66 0.66 1.32 1 2 C1.99 2 2.98 2 4 2 C3.33989524 4.84550012 2.48275034 7.52325999 1.4375 10.25 C1.16808594 10.95640625 0.89867188 11.6628125 0.62109375 12.390625 C0.41613281 12.92171875 0.21117188 13.4528125 0 14 C-2 10.25 -2 10.25 -2 8 C-1.34 8 -0.68 8 0 8 C0 5.36 0 2.72 0 0 Z " fill="#225AB0" transform="translate(105,59)"/>
<path d="M0 0 C0.33 0.66 0.66 1.32 1 2 C2.65 2 4.3 2 6 2 C6 1.34 6 0.68 6 0 C7.65 0 9.3 0 11 0 C9.30820672 2.04219706 8.36272334 2.91793306 5.73828125 3.51171875 C4.93777344 3.56972656 4.13726562 3.62773437 3.3125 3.6875 C2.10013672 3.78611328 2.10013672 3.78611328 0.86328125 3.88671875 C0.24839844 3.92410156 -0.36648437 3.96148437 -1 4 C-1.33 3.01 -1.66 2.02 -2 1 C-1.34 0.67 -0.68 0.34 0 0 Z " fill="#286BD7" transform="translate(181,201)"/>
<path d="M0 0 C2.64 0 5.28 0 8 0 C8.3403125 0.8353125 8.3403125 0.8353125 8.6875 1.6875 C10.35896766 4.63246684 12.55276352 6.68156544 15 9 C11.65706677 7.94936384 9.98483949 6.98446048 7.5 4.4375 C4.85827659 1.86181967 3.6003381 1.30860041 0 1 C0 0.67 0 0.34 0 0 Z " fill="#437BDB" transform="translate(103,152)"/>
<path d="M0 0 C0.66 0 1.32 0 2 0 C6 6.75 6 6.75 6 9 C6.66 9.33 7.32 9.66 8 10 C7.01 10 6.02 10 5 10 C1.93193534 6.84169815 0.50057152 4.38000076 0 0 Z " fill="#2559AD" transform="translate(57,190)"/>
<path d="M0 0 C5.26389811 0.31902413 8.44402449 3.39278565 12 7 C12 7.33 12 7.66 12 8 C10.35 8 8.7 8 7 8 C6.731875 7.360625 6.46375 6.72125 6.1875 6.0625 C5.11332248 3.66868314 5.11332248 3.66868314 2 3 C2 2.34 2 1.68 2 1 C1.34 0.67 0.68 0.34 0 0 Z " fill="#E1F9FE" transform="translate(104,153)"/>
<path d="M0 0 C0.928125 0.20625 1.85625 0.4125 2.8125 0.625 C2.4825 1.285 2.1525 1.945 1.8125 2.625 C1.1525 2.625 0.4925 2.625 -0.1875 2.625 C-0.1875 3.285 -0.1875 3.945 -0.1875 4.625 C-3.1575 4.13 -3.1575 4.13 -6.1875 3.625 C-6.1875 2.965 -6.1875 2.305 -6.1875 1.625 C-3.1875 -0.375 -3.1875 -0.375 0 0 Z " fill="#256BD6" transform="translate(75.1875,201.375)"/>
<path d="M0 0 C0.99 0.33 1.98 0.66 3 1 C1.71283353 2.00578589 0.42011342 3.00446798 -0.875 4 C-1.95394531 4.8353125 -1.95394531 4.8353125 -3.0546875 5.6875 C-5 7 -5 7 -7 7 C-7 6.34 -7 5.68 -7 5 C-4.4385343 2.70351351 -3.52032428 2 0 2 C0 1.34 0 0.68 0 0 Z " fill="#DAF2FE" transform="translate(148,162)"/>
<path d="M0 0 C2.97 0 5.94 0 9 0 C9 0.33 9 0.66 9 1 C7.35 1 5.7 1 4 1 C3.67 2.32 3.34 3.64 3 5 C2.34 5 1.68 5 1 5 C0.67 3.35 0.34 1.7 0 0 Z " fill="#3176E7" transform="translate(168,81)"/>
<path d="M0 0 C2 3 4 6 6 9 C4.02 8.34 2.04 7.68 0 7 C0 4.69 0 2.38 0 0 Z " fill="#3B7CE7" transform="translate(101,156)"/>
<path d="M0 0 C2.97 0.99 5.94 1.98 9 3 C4.64467851 5.17766075 3.53374042 5.03039555 -1 4 C-0.67 2.68 -0.34 1.36 0 0 Z " fill="#4985EA" transform="translate(147,136)"/>
<path d="M0 0 C1.32 0 2.64 0 4 0 C3.67 1.32 3.34 2.64 3 4 C1.35 4.33 -0.3 4.66 -2 5 C-1.125 1.125 -1.125 1.125 0 0 Z " fill="#296AD6" transform="translate(108,48)"/>
<path d="M0 0 C0.33 0 0.66 0 1 0 C1 2.64 1 5.28 1 8 C0.01 8.33 -0.98 8.66 -2 9 C-1.125 2.25 -1.125 2.25 0 0 Z " fill="#2357AC" transform="translate(96,62)"/>
<path d="M0 0 C1.9375 0.8125 1.9375 0.8125 4 2 C4.33 2.99 4.66 3.98 5 5 C4.01 5.495 4.01 5.495 3 6 C2.01 5.67 1.02 5.34 0 5 C0 3.35 0 1.7 0 0 Z " fill="#275CB8" transform="translate(150,51)"/>
</svg>
